<svg width="683" height="482" viewBox="0 0 683 482" fill="none" xmlns="http://www.w3.org/2000/svg">
<path d="M94.9109 0.768812C93.3109 1.43548 91.4443 3.70214 90.6443 5.9688C89.3109 9.70214 81.4443 19.0355 53.0443 50.5021C47.9776 56.2355 43.7109 61.3021 43.7109 61.8355C43.7109 62.3688 44.7776 64.5021 46.1109 66.7688C48.1109 69.9688 52.2443 72.3688 66.9109 78.5021C123.178 102.502 185.444 121.302 244.378 132.235C280.511 138.902 283.978 139.169 287.578 135.569C289.178 133.969 290.378 131.569 290.111 130.369C289.178 125.835 220.911 75.7021 173.711 45.1688C148.778 29.0355 103.178 1.43548 99.4443 0.102145C98.5109 -0.164521 96.3776 0.102145 94.9109 0.768812ZM160.778 60.7688C165.978 63.9688 170.378 70.7688 170.378 75.7021C170.378 80.6355 163.711 87.9688 157.444 89.8355C151.311 91.7021 141.711 89.3021 138.911 85.4355C134.511 79.4355 138.644 67.8355 147.178 61.7021C153.311 57.4355 155.044 57.3021 160.778 60.7688Z" fill="#D77D00"/>
<path d="M564.911 19.1691C528.244 36.3691 511.044 46.3691 456.377 82.1024C436.644 95.0357 412.777 110.636 403.444 116.636C394.111 122.636 386.111 128.769 385.711 130.236C385.177 131.702 385.711 134.369 386.911 136.102C389.044 139.436 389.444 139.436 407.844 139.436C442.911 139.436 481.844 133.436 533.044 119.969C569.844 110.236 640.511 89.7024 643.577 87.8357C645.977 86.3691 646.511 85.0357 645.977 82.3691C644.244 73.3024 642.377 68.6357 639.044 64.2357C634.911 58.7691 599.177 24.7691 591.444 18.9024C588.644 16.7691 586.377 13.9691 586.377 12.6357C586.377 11.1691 585.977 10.1024 585.444 10.1024C584.777 10.1024 575.711 14.2357 564.911 19.1691ZM540.911 73.5691C551.844 82.7691 544.511 100.369 529.044 101.836C511.711 103.436 499.977 90.5024 507.311 77.9691C508.644 75.8357 509.977 74.1024 510.377 74.1024C510.777 73.9691 514.111 73.1691 517.711 72.1024C528.644 69.0357 536.244 69.5691 540.911 73.5691Z" fill="#D77D00"/>
<path d="M18.6433 113.702C17.8433 115.036 15.4433 124.502 13.1767 134.769C-8.02333 231.036 -3.62333 314.769 26.2433 383.169C30.3767 392.636 32.11 395.302 35.9767 397.302C38.51 398.769 41.4433 399.569 42.51 399.169C43.5767 398.769 48.91 392.236 54.2433 384.636C74.3767 356.369 85.31 344.769 92.11 344.769C100.643 344.769 115.31 370.769 133.177 417.836C141.177 439.302 143.31 443.569 145.843 444.236C152.11 445.836 153.977 443.702 163.71 424.369C168.91 413.969 175.177 401.702 177.577 397.036L182.11 388.636L186.91 394.502C192.377 401.302 195.577 408.102 207.043 437.702C217.043 463.569 218.51 466.102 223.443 466.102C228.377 466.102 230.91 463.169 240.377 446.769C253.31 424.369 262.91 411.436 266.377 411.436C268.11 411.436 276.91 429.836 288.377 457.436C292.643 467.702 297.043 477.169 298.11 478.369C299.177 479.702 301.843 480.769 303.843 480.769C308.377 480.769 309.977 478.636 325.843 452.102C332.243 441.169 339.177 430.502 341.043 428.369C343.977 425.036 344.777 424.769 347.977 425.969C353.443 427.969 361.443 439.302 372.91 460.769C383.043 479.969 383.043 480.102 388.377 480.902C397.71 482.502 399.31 480.902 407.71 460.102C411.843 449.836 416.243 439.569 417.443 437.169C421.043 430.369 429.577 422.102 433.043 422.102C438.51 422.102 445.843 431.836 455.977 452.369C461.31 463.036 466.777 472.502 468.11 473.302C469.843 474.369 471.31 474.236 473.977 472.769C477.177 471.036 478.777 467.169 486.377 443.436C497.977 407.569 503.577 397.036 513.31 391.969C522.51 387.169 526.91 392.502 536.51 419.169C543.31 438.102 545.977 441.836 552.11 440.236C554.643 439.702 556.91 435.702 563.977 419.169C568.777 407.969 574.91 392.769 577.71 385.436L582.777 372.236L586.377 384.902C588.377 391.969 591.71 405.036 593.843 413.969C597.843 431.702 599.577 434.102 606.777 432.236C614.11 430.502 643.043 389.836 655.043 364.369C688.91 292.502 691.31 219.169 662.11 144.369C654.777 125.569 651.977 122.102 645.977 124.902C641.577 126.902 640.11 130.769 638.377 144.769C636.377 160.636 630.91 187.036 626.243 202.769C622.777 214.236 611.843 245.836 610.91 247.302C610.643 247.569 604.91 242.102 598.11 235.302C585.31 222.369 567.71 207.302 561.71 204.236C557.71 202.102 554.11 202.769 551.177 205.836C550.11 207.169 545.977 223.836 541.843 243.436C537.71 262.902 533.843 279.969 533.31 281.302C532.377 283.436 531.043 281.969 525.177 272.636C511.843 251.436 499.577 235.436 496.243 234.636C491.577 233.436 486.777 237.169 485.177 243.036C484.51 245.836 482.91 251.969 481.71 256.636C477.977 271.302 464.243 307.436 462.377 307.436C461.977 307.436 458.777 301.569 455.177 294.369C446.11 275.969 429.31 249.036 426.377 248.102C422.91 247.036 417.177 248.636 415.843 251.302C415.177 252.502 410.377 265.169 405.043 279.436C392.377 313.569 378.377 341.702 375.71 338.502C375.177 337.836 373.443 333.836 371.71 329.436C370.11 325.036 365.043 313.169 360.777 303.169C354.11 288.102 352.11 284.769 349.177 283.702C342.51 281.436 340.51 283.569 329.577 304.636C323.977 315.702 318.91 324.769 318.51 324.769C318.11 324.636 309.31 311.036 299.043 294.502C274.91 255.436 273.843 254.102 269.443 254.102C267.577 254.102 264.777 255.036 263.577 256.236C262.243 257.436 254.377 270.102 246.11 284.369C232.51 307.569 230.91 309.969 229.177 307.836C226.11 303.836 209.577 269.436 203.71 254.902C195.443 234.369 192.243 233.969 177.31 251.702C167.31 263.569 153.443 277.702 152.643 276.636C152.377 276.369 145.577 259.302 137.443 238.769C117.31 187.569 115.977 186.769 101.177 216.502C96.11 226.502 89.71 238.902 86.7767 243.836L81.4433 253.036L79.9767 249.169C61.31 196.636 39.8433 140.636 31.1767 121.569C27.1767 112.902 26.11 111.436 23.1767 111.436C21.31 111.436 19.31 112.502 18.6433 113.702Z" fill="#D77D00"/>
<path d="M339.31 147.702C334.91 152.236 315.577 176.502 310.644 183.702C303.977 193.436 298.377 206.236 298.377 211.569C298.377 217.569 302.644 223.436 307.044 223.436C309.71 223.436 327.844 213.969 336.11 208.102C340.644 204.902 343.444 205.702 352.91 212.636C368.244 223.836 372.244 226.102 376.51 226.102C381.177 226.102 385.044 222.636 385.044 218.502C385.044 211.302 358.51 156.102 351.444 148.502C347.31 143.969 343.31 143.702 339.31 147.702Z" fill="#D77D00"/>
</svg>
